<svg xmlns="http://www.w3.org/2000/svg" viewBox="0 0 500 392.41"><title>launcher_icon</title><path d="M92.89,445.57v4.78s-33.41,3.21-60.6-2.35c-8.17-1.67-26.52-6.55-25.59-16.11s20.82-16.21,30.86-18.31c13.86-2.9,40-1,40-1s-30.07,1.9-40.22,5-22.78,7.66-22,14.15,19.93,12.86,42.57,13.27C75.48,445.37,92.89,445.57,92.89,445.57ZM221.36,409c34.44-1.34,105-1.48,142.6-6,17.47-2.1,62.74-10.67,62.14-29.26-.43-13.39-28.22-21.84-39.56-25a198.8,198.8,0,0,0-57.4-8.08c-27.87,0-40.24.81-57.71,2.67s-59.9,6.84-58.82,23.41c1,15.07,22.11,15.41,32.91,16.69s29.44,0,35,0,28.23-3.16,32.55-4.4,18.87-5.51,17.77-11.83c-1.34-7.75-12.18-7-12.18-7s4.92,1.8,5.17,6.61-8.29,7.7-11,8.34c-9.29,2.26-22.09,5.85-48.48,5.33s-42.57-4.58-43.56-13,20.56-16.19,34.49-18c32-4.26,41.91-5.6,67.15-5.6s36,2.64,49.16,5c27.53,4.84,46.3,14.74,46.32,25.86,0,13.21-48.43,22-65.21,24.11S160,408,160,408,198.6,409.86,221.36,409Z" transform="translate(-6.67 -58.86)"/><path d="M106.83,407.56C117,390.18,165,320.2,165,320.2l-2.4,21.12,2.4-1.22L114.49,418.6,87.91,449.11S96.68,424.94,106.83,407.56Zm90-131.89c4.23-5.88,32.64-43.58,49.89-64.5,17-20.59,39.13-45.66,59.59-62.26s56.65-46.25,103.54-64c37.07-14.05,56.82-14.23,56.82-14.23A260.73,260.73,0,0,0,407.92,90c-30.29,14.28-59.22,30.42-101.7,67.16-42.24,38.88-88.17,105-95.3,115.14-18.19,25.91-45.71,67.48-45.71,67.48s7.52-6.55,25.86-8.08c12.66-1.06,26.71,1.24,26.71,1.24s-8.35-2.58-10.8-3.47-10-3.86-10-3.86a149.14,149.14,0,0,0,25.07-3.45c9.56-2,26.42-6.63,26.42-6.63l-18.24,1.42c-4.53.35-30.73,1.85-30.73,1.85s3.61-2.22,11.57-4.09c5.29-1.24,37.1-8.67,50.79-14.37,30.05-12.52,43.83-25.12,57.21-41.88,6.27-7.86,14.66-19.4,20.89-29.17,7.91-12.41,15.27-24.29,25.59-33.6,12.11-10.93,26.18-24,26.18-24s-5.91-4.11-30.42-2.69-52.72,6-52.72,6,16-7.21,42.6-9.88c17.66-1.8,41.68-1,41.68-1s21.87-10.58,35.23-22.18c8.48-6.92,14.26-16.56,21.83-23.63a67.74,67.74,0,0,1,19.35-14.37s-3.91-4.4-20.21-6.81c-21.16-2.69-45.93-.72-45.93-.72s21.26-7.13,50.94-4.78c21.19,1.77,31.44,4.87,31.44,4.87s9.09-2.74,15.17-13.24c8.35-14.44,5.8-21.35,4.68-22.48a5.85,5.85,0,0,0-4.66-1.88c-2.51,0-15.69,1.27-18.78,1.85s-20.21,4-20.21,4,.78-2-3.68-3.65c-1.65-.61-20.23-2.58-52.53,6.55-25.8,7.29-51.4,19.9-66.63,28.74-53.16,30.89-91,67.87-91,67.87l-8.52,45,1.75-39.14a73.47,73.47,0,0,1-14.45,26c-10.89,12.69-15.93,14.14-23.84,28.45-13.53,24.5-22.18,55.66-22.18,55.66s.34-3.24-2.09-9.62a97.91,97.91,0,0,0-7.32-14.28s5.23,11.76,4.25,24.42S166.91,303,166.91,303l-1.69,16.54Z" transform="translate(-6.67 -58.86)" style="fill:#304187"/></svg>